<svg xmlns="http://www.w3.org/2000/svg"  viewBox="0 0 64 64" width="64px" height="64px"><path d="M 17 6 C 10.935 6 6 10.935 6 17 L 6 47 C 6 53.065 10.935 58 17 58 L 47 58 C 48.958192 58 50.794135 57.478944 52.388672 56.578125 C 52.412999 56.567937 52.431777 56.551076 52.455078 56.539062 C 55.762393 54.639923 58 51.079316 58 47 L 58 17 C 58 10.935 53.065 6 47 6 L 17 6 z M 17 8 L 47 8 C 51.963 8 56 12.038 56 17 L 56 47 C 56 49.679816 54.816086 52.082145 52.951172 53.732422 C 52.757177 49.022573 52.052379 46.523562 51.962891 46.228516 C 51.950891 46.186516 51.936922 46.145469 51.919922 46.105469 C 51.860922 45.969469 51.775875 45.852813 51.671875 45.757812 C 51.612875 45.704813 51.533891 45.675719 51.462891 45.636719 C 51.495891 45.505719 51.539547 45.377094 51.560547 45.246094 C 51.842547 43.472094 50.889625 42.045063 49.015625 41.414062 C 49.658625 39.901063 50.022953 38.016234 50.001953 35.990234 C 49.890953 25.734234 42.366 18 32.5 18 C 22.99 18 14 26.505 14 35.5 C 14 38.042 14.370781 40.297141 15.050781 42.119141 C 13.452781 42.576141 12.461953 43.697922 12.501953 45.169922 C 12.505953 45.313922 12.51625 45.465094 12.53125 45.621094 C 12.43525 45.672094 12.346437 45.7355 12.273438 45.8125 C 12.187437 45.9025 12.118313 46.007906 12.070312 46.128906 C 12.054312 46.168906 12.04225 46.209 12.03125 46.25 C 11.951338 46.540346 11.300499 49.039989 11.076172 53.759766 C 9.1944488 52.108868 8 49.6937 8 47 L 8 17 C 8 12.038 12.037 8 17 8 z M 19.830078 10.236328 C 17.673203 10.143828 15.478219 10.824859 13.699219 12.318359 C 11.867219 13.856359 10.742203 16.013484 10.533203 18.396484 C 10.350203 20.492484 10.896172 22.54 12.076172 24.25 L 10.607422 25.482422 C 10.184422 25.837422 10.128375 26.469578 10.484375 26.892578 C 10.681375 27.128578 10.964953 27.248047 11.251953 27.248047 C 11.478953 27.248047 11.704578 27.172625 11.892578 27.015625 L 28.373047 13.185547 C 28.796047 12.831547 28.852094 12.200344 28.496094 11.777344 C 28.142094 11.355344 27.512891 11.299297 27.087891 11.654297 L 25.730469 12.792969 C 24.105969 11.194469 21.986953 10.328828 19.830078 10.236328 z M 19.449219 12.226562 C 21.120219 12.226562 22.781937 12.824281 24.085938 13.988281 L 13.539062 22.837891 C 11.750063 19.949891 12.307375 16.098562 14.984375 13.851562 C 16.285375 12.760563 17.871219 12.226563 19.449219 12.226562 z M 32.5 20 C 41.238 20 47.901 26.883719 48 36.011719 C 48.021 38.022719 47.595344 39.905172 46.902344 41.201172 C 44.857344 41.425172 42.812734 42.738828 41.052734 43.923828 C 34.602734 43.246828 28.217734 43.227719 22.177734 43.886719 C 20.016734 42.333719 18.678469 41.907766 17.105469 41.884766 C 16.397469 40.234766 16 38.011 16 35.5 C 16 27.533 24.019 20 32.5 20 z M 39.519531 29.800781 A 1.748 0.972 76.532 0 0 39.382812 29.816406 A 1.748 0.972 76.532 1 0 40.195312 33.216797 A 1.748 0.972 76.532 0 0 39.519531 29.800781 z M 24.638672 32.603516 A 1.738 0.972 76.532 0 0 24.501953 32.617188 A 1.738 0.972 76.532 1 0 25.3125 35.998047 A 1.738 0.972 76.532 0 0 24.638672 32.603516 z M 37.800781 35.197266 C 36.614781 35.041266 35.877344 36.785656 34.902344 36.847656 C 32.768344 36.983656 28.879406 35.624313 28.441406 37.570312 C 28.199406 38.645312 32.399781 40.649141 35.675781 39.994141 C 39.793781 39.171141 38.986781 35.353266 37.800781 35.197266 z M 47.414062 43.160156 C 47.734891 43.154719 48.044047 43.196219 48.341797 43.292969 C 49.605797 43.702969 49.671891 44.379828 49.587891 44.923828 C 49.398891 46.145828 48.191062 47.262625 47.789062 47.265625 C 47.392063 47.265625 46.849125 47.265859 46.703125 45.505859 C 46.665125 45.047859 46.319234 44.672609 45.865234 44.599609 C 45.660234 44.566609 45.462141 44.529281 45.244141 44.488281 C 44.956141 44.433281 44.623312 44.371734 44.195312 44.302734 C 45.381813 43.620984 46.451578 43.176469 47.414062 43.160156 z M 17.023438 43.880859 C 17.727438 43.880859 18.386828 43.978547 19.298828 44.435547 L 17.884766 44.726562 C 17.363766 44.834562 17.018656 45.330469 17.097656 45.855469 C 17.191656 46.471469 17.002187 47.159422 16.617188 47.607422 C 16.499188 47.744422 16.258703 47.974609 15.970703 47.974609 C 15.120703 47.974609 14.532953 46.281234 14.501953 45.115234 C 14.478953 44.279234 15.560188 43.934531 16.492188 43.894531 C 16.676188 43.886531 16.850437 43.880859 17.023438 43.880859 z M 31.248047 45.412109 C 34.497547 45.404109 37.806312 45.577047 41.132812 45.935547 C 41.159813 45.940547 41.182938 45.952078 41.210938 45.955078 C 41.453938 45.977078 41.678625 46.001438 41.890625 46.023438 C 42.581625 46.103437 43.274797 46.195016 43.966797 46.291016 C 44.292797 46.344016 44.563594 46.393453 44.808594 46.439453 C 45.153594 48.313453 46.152109 49.263625 47.787109 49.265625 L 47.789062 49.265625 C 48.638062 49.265625 49.562969 48.681938 50.292969 47.835938 C 50.550487 49.090512 50.913963 51.524667 50.982422 55.058594 C 49.780031 55.655274 48.430894 56 47 56 L 17 56 C 15.575308 56 14.231689 55.658246 13.033203 55.066406 C 13.115484 52.183478 13.365204 50.024622 13.587891 48.648438 C 14.139891 49.423437 14.91875 49.974609 15.96875 49.974609 C 16.77475 49.974609 17.542813 49.596156 18.132812 48.910156 C 18.690812 48.262156 19.032469 47.399578 19.105469 46.517578 L 21.712891 45.978516 C 24.808391 45.610016 27.998547 45.420109 31.248047 45.412109 z M 32.078125 48.746094 C 31.525125 48.749094 31.079031 49.199953 31.082031 49.751953 L 31.09375 51.751953 C 31.09675 52.302953 31.54375 52.746094 32.09375 52.746094 L 32.097656 52.746094 C 32.650656 52.743094 33.09675 52.294187 33.09375 51.742188 L 33.082031 49.742188 C 33.079031 49.191188 32.632031 48.746094 32.082031 48.746094 L 32.078125 48.746094 z M 37.039062 48.828125 C 36.487063 48.811125 36.024906 49.237063 36.003906 49.789062 L 35.927734 51.787109 C 35.906734 52.339109 36.336672 52.805172 36.888672 52.826172 L 36.927734 52.826172 C 37.461734 52.826172 37.904781 52.403234 37.925781 51.865234 L 38.001953 49.865234 C 38.022953 49.313234 37.591062 48.849125 37.039062 48.828125 z M 27.123047 48.871094 C 26.571047 48.896094 26.145922 49.362063 26.169922 49.914062 L 26.259766 51.912109 C 26.283766 52.449109 26.726813 52.867188 27.257812 52.867188 C 27.272813 52.867187 27.286734 52.868187 27.302734 52.867188 C 27.854734 52.842188 28.281813 52.374266 28.257812 51.822266 L 28.167969 49.824219 C 28.142969 49.272219 27.656047 48.852094 27.123047 48.871094 z M 42.011719 49.142578 C 41.467719 49.103578 40.975781 49.498828 40.925781 50.048828 L 40.744141 52.041016 C 40.694141 52.590016 41.099391 53.076953 41.650391 53.126953 C 41.680391 53.129953 41.710234 53.130859 41.740234 53.130859 C 42.252234 53.130859 42.689328 52.740703 42.736328 52.220703 L 42.917969 50.228516 C 42.967969 49.679516 42.562719 49.192578 42.011719 49.142578 z M 22.177734 49.191406 C 21.627734 49.239406 21.218625 49.723438 21.265625 50.273438 L 21.435547 52.265625 C 21.479547 52.786625 21.917641 53.181641 22.431641 53.181641 C 22.459641 53.181641 22.487578 53.179734 22.517578 53.177734 C 23.067578 53.129734 23.474734 52.645703 23.427734 52.095703 L 23.257812 50.103516 C 23.211813 49.552516 22.727734 49.143406 22.177734 49.191406 z"/></svg>