<svg xmlns="http://www.w3.org/2000/svg"  viewBox="0 0 50 50" width="50px" height="50px"><path d="M 9 4 C 6.2504839 4 4 6.2504839 4 9 L 4 41 C 4 43.749516 6.2504839 46 9 46 L 41 46 C 43.749516 46 46 43.749516 46 41 L 46 9 C 46 6.2504839 43.749516 4 41 4 L 9 4 z M 9 6 L 41 6 C 42.668484 6 44 7.3315161 44 9 L 44 41 C 44 42.668484 42.668484 44 41 44 L 9 44 C 7.3315161 44 6 42.668484 6 41 L 6 9 C 6 7.3315161 7.3315161 6 9 6 z M 22.064453 10 C 21.32223 10 20.714844 10.628857 20.714844 11.355469 C 20.714844 13.62048 19.561464 15.176904 18.332031 16.25 C 17.717315 16.786548 17.088923 17.183797 16.619141 17.443359 C 16.38425 17.573141 16.188962 17.668592 16.054688 17.730469 C 15.920412 17.792349 15.783566 17.84564 15.865234 17.814453 A 1.0001 1.0001 0 0 0 15.853516 17.818359 C 15.330687 18.02516 15 18.530299 15 19.078125 A 1.0001 1.0001 0 0 0 15 19.082031 L 15.011719 22.625 C 15.011719 23.351612 15.650193 23.970703 16.361328 23.970703 L 18.009766 23.976562 L 18 31.308594 A 1.0001 1.0001 0 0 0 18 31.310547 C 18 31.782003 18.03149 33.806727 18.9375 35.855469 C 19.843512 37.904164 21.847811 40 25.267578 40 C 27.93104 40 29.940343 39.492767 31.306641 38.958984 C 31.989789 38.692093 32.51259 38.419627 32.878906 38.201172 C 33.062064 38.091944 33.206133 37.994915 33.3125 37.919922 C 33.418867 37.844932 33.443267 37.831922 33.542969 37.744141 A 1.0001 1.0001 0 0 0 33.558594 37.730469 C 33.837093 37.474243 34 37.109609 34 36.726562 A 1.0001 1.0001 0 0 0 33.998047 36.693359 L 33.998047 33.027344 C 33.998047 32.541755 33.734964 32.087433 33.3125 31.847656 A 1.0001 1.0001 0 0 0 33.308594 31.845703 C 32.891659 31.611178 32.337746 31.61405 31.917969 31.888672 A 1.0001 1.0001 0 0 0 31.888672 31.908203 C 31.802942 31.968723 31.872244 31.922734 31.865234 31.927734 C 31.858234 31.932734 31.845255 31.939522 31.828125 31.951172 C 31.793865 31.974462 31.739275 32.010261 31.666016 32.054688 C 31.519508 32.143527 31.298456 32.266241 31.019531 32.388672 C 30.461682 32.633534 29.677436 32.875 28.779297 32.875 C 27.799992 32.875 27.522684 32.528884 27.283203 32.111328 C 27.163463 31.90255 27.086312 31.665643 27.044922 31.478516 C 27.003532 31.291388 26.998047 31.090126 26.998047 31.189453 C 26.998047 31.012352 26.9998 25.509621 27 24.003906 L 30.650391 24 C 31.437518 24 32 23.359426 32 22.632812 L 32 18.373047 C 32 17.647057 31.431533 17.008906 30.652344 17.007812 L 30.650391 17.007812 L 27 17.001953 L 27 11.392578 C 27 10.665966 26.392613 10.037109 25.650391 10.037109 L 22.074219 10 A 1.0001 1.0001 0 0 0 22.064453 10 z M 22.630859 12.005859 L 25 12.03125 L 25 18 A 1.0001 1.0001 0 0 0 25.998047 19 L 30 19.005859 L 30 22 L 26 22.003906 A 1.0001 1.0001 0 0 0 25 23.003906 C 25 23.003906 24.998047 30.981201 24.998047 31.189453 C 24.998047 31.39078 25.017567 31.574534 25.091797 31.910156 C 25.166037 32.245779 25.298068 32.668247 25.548828 33.105469 C 26.050348 33.979913 27.162601 34.875 28.779297 34.875 C 30.030158 34.875 31.080068 34.547341 31.824219 34.220703 C 31.897779 34.188413 31.930453 34.162909 31.998047 34.130859 L 31.998047 36.390625 C 31.949237 36.422175 31.920387 36.443702 31.855469 36.482422 C 31.578348 36.647685 31.154679 36.871219 30.580078 37.095703 C 29.430923 37.54467 27.678116 38 25.267578 38 C 22.604345 38 21.474816 36.64418 20.767578 35.044922 C 20.060835 33.446782 20.000084 31.628928 20 31.3125 L 20 31.310547 L 20.011719 22.980469 A 1.0001 1.0001 0 0 0 19.015625 21.978516 L 17.009766 21.972656 L 17.001953 19.492188 C 17.165083 19.414957 17.349546 19.325049 17.587891 19.193359 C 18.153202 18.881016 18.894826 18.411936 19.646484 17.755859 C 21.031407 16.547045 22.413066 14.611564 22.630859 12.005859 z"/></svg>